# Blender v2.75 (sub 0) OBJ File: ''
# www.blender.org
mtllib log.mtl
o Cube
v 3.313403 -0.403814 -0.429577
v 3.313403 -0.403814 0.427946
v -3.313403 -0.403814 0.427945
v -3.313401 -0.403814 -0.429577
v 3.313405 0.408944 -0.429576
v 3.313401 0.408944 0.427946
v -3.313404 0.408944 0.427945
v -3.313403 0.408944 -0.429577
v 3.313403 -0.466486 0.358351
v -3.313403 -0.466486 0.358351
v 3.313401 0.471617 0.358352
v -3.313404 0.471617 0.358351
v -3.313402 -0.466486 -0.362864
v -3.313403 0.471617 -0.362864
v 3.313403 -0.466486 -0.362864
v 3.313404 0.471617 -0.362864
v 3.313404 0.352090 -0.469867
v 3.313401 0.352090 0.468236
v -3.313404 0.352090 0.468236
v -3.313403 0.352090 -0.469867
v -3.313404 0.352090 0.358351
v 3.313401 0.352090 0.358352
v 3.313404 0.352090 -0.362864
v -3.313403 0.352090 -0.362864
v -3.313403 -0.337896 0.358351
v 3.313403 -0.337896 0.358351
v 3.313403 -0.337896 -0.362864
v -3.313402 -0.337896 -0.362864
v 3.313403 -0.337896 -0.469867
v 3.313403 -0.337896 0.468236
v -3.313403 -0.337896 0.468236
v -3.313402 -0.337896 -0.469867
vt 0.000000 0.000000
vt 0.018678 0.000000
vt 0.018679 1.000000
vt 0.000000 1.000000
vt 0.422705 0.000001
vt 0.422706 1.000000
vt 0.406289 1.000000
vt 0.406288 0.000001
vt 0.804627 0.265087
vt 0.804627 0.283124
vt 0.788210 0.273666
vt 0.778706 0.265087
vt 0.192900 0.000000
vt 0.203236 0.000000
vt 0.203236 1.000000
vt 0.192901 1.000000
vt 0.971804 0.125415
vt 1.000000 0.125415
vt 0.985216 0.135482
vt 0.971804 0.141562
vt 0.370251 0.000000
vt 0.387794 0.000000
vt 0.387794 0.999999
vt 0.370251 0.999999
vt 0.971804 0.000000
vt 0.985216 0.006080
vt 1.000000 0.016582
vt 0.971804 0.016582
vt 0.974759 0.265087
vt 0.974759 0.283124
vt 0.592837 0.000000
vt 0.592837 1.000000
vt 0.608574 0.000000
vt 0.778706 0.000000
vt 0.778706 1.000000
vt 0.608574 0.999999
vt 1.000000 0.265087
vt 0.990496 0.273666
vt 0.809040 0.016582
vt 0.809040 0.125415
vt 1.000000 0.160966
vt 0.974759 0.160966
vt 0.804627 0.160966
vt 0.809040 0.000000
vt 0.213572 0.000000
vt 0.213572 1.000000
vt 0.809040 0.141562
vt 0.036221 0.000000
vt 0.036222 1.000000
vt 0.778706 0.160966
vt 0.804627 0.141562
vt 0.788210 0.151019
vt 0.778706 0.125415
vt 0.793490 0.135482
vt 0.793490 0.006080
vt 0.778706 0.016582
vt 0.974759 0.141562
vt 0.990496 0.151019
vn -0.000000 -0.743100 0.669200
vn -0.000000 0.743100 0.669200
vn 1.000000 0.000000 0.000000
vn -0.000000 0.578200 0.815900
vn -1.000000 -0.000000 -0.000000
vn 0.000000 -0.521500 -0.853200
vn 0.000000 1.000000 0.000000
vn 0.000000 -1.000000 -0.000000
vn 0.000000 -0.728800 -0.684700
vn 0.000000 0.728800 -0.684700
vn 0.000000 0.578200 -0.815900
vn -0.000000 -0.000000 1.000000
vn -0.000000 -0.521500 0.853200
vn 0.000000 0.000000 -1.000000
usemtl Material
s off
f 9/1/1 2/2/1 3/3/1 10/4/1
f 11/5/2 12/6/2 7/7/2 6/8/2
f 22/9/3 11/10/3 6/11/3 18/12/3
f 18/13/4 6/14/4 7/15/4 19/16/4
f 24/17/5 14/18/5 8/19/5 20/20/5
f 29/21/6 1/22/6 4/23/6 32/24/6
f 19/25/5 7/26/5 12/27/5 21/28/5
f 23/29/3 16/30/3 11/10/3 22/9/3
f 16/31/7 14/32/7 12/6/7 11/5/7
f 15/33/8 9/34/8 10/35/8 13/36/8
f 1/22/9 15/8/9 13/7/9 4/23/9
f 5/33/10 8/36/10 14/32/10 16/31/10
f 17/37/3 5/38/3 16/30/3 23/29/3
f 21/28/5 12/27/5 14/18/5 24/17/5
f 25/39/5 21/28/5 24/17/5 28/40/5
f 29/41/3 17/37/3 23/29/3 27/42/3
f 27/42/3 23/29/3 22/9/3 26/43/3
f 31/44/5 19/25/5 21/28/5 25/39/5
f 5/14/11 17/45/11 20/46/11 8/15/11
f 28/40/5 24/17/5 20/20/5 32/47/5
f 30/48/12 18/13/12 19/16/12 31/49/12
f 26/43/3 22/9/3 18/12/3 30/50/3
f 9/51/3 26/43/3 30/50/3 2/52/3
f 2/2/13 30/48/13 31/49/13 3/3/13
f 13/53/5 28/40/5 32/47/5 4/54/5
f 3/55/5 31/44/5 25/39/5 10/56/5
f 15/57/3 27/42/3 26/43/3 9/51/3
f 1/58/3 29/41/3 27/42/3 15/57/3
f 10/56/5 25/39/5 28/40/5 13/53/5
f 17/45/14 29/21/14 32/24/14 20/46/14
